/* XPM */
static char * zlogo_xpm[] = {
"48 48 137 2",
"  	c None",
". 	c #B1B1DB",
"+ 	c #B1B1DA",
"@ 	c #B1B2DB",
"# 	c #B2B2DB",
"$ 	c #B1B2DA",
"% 	c #B2B3DC",
"& 	c #A3A4D3",
"* 	c #B4B4DC",
"= 	c #B2B2DC",
"- 	c #B0B0DA",
"; 	c #9397CA",
"> 	c #7B7CBD",
", 	c #7C7DBE",
"' 	c #8788C4",
") 	c #A0A0D1",
"! 	c #B1B3DB",
"~ 	c #B3B2DB",
"{ 	c #B0B2DB",
"] 	c #8F93C9",
"^ 	c #5D65AD",
"/ 	c #3D469A",
"( 	c #424B9D",
"_ 	c #7A7BBD",
": 	c #797ABC",
"< 	c #7A7BBC",
"[ 	c #9FA0D1",
"} 	c #B3B5DD",
"| 	c #B3B3DC",
"1 	c #B7B6DE",
"2 	c #AEAED9",
"3 	c #5F66AE",
"4 	c #3E489C",
"5 	c #3D479B",
"6 	c #7C7CBD",
"7 	c #9D9ED1",
"8 	c #ADAED8",
"9 	c #878AC3",
"0 	c #565FA9",
"a 	c #424B9E",
"b 	c #8C8DC6",
"c 	c #A4A4D4",
"d 	c #B2B1DB",
"e 	c #B3B3DB",
"f 	c #AAACD8",
"g 	c #878BC4",
"h 	c #3E479A",
"i 	c #424C9E",
"j 	c #414B9D",
"k 	c #8C8DC7",
"l 	c #B7B7DD",
"m 	c #ABACD7",
"n 	c #5159A7",
"o 	c #3E479B",
"p 	c #414C9E",
"q 	c #414B9E",
"r 	c #7979BB",
"s 	c #8C8CC6",
"t 	c #A4A5D4",
"u 	c #B2B2DA",
"v 	c #A9A9D7",
"w 	c #7F84C0",
"x 	c #5059A6",
"y 	c #3E489B",
"z 	c #B4B3DB",
"A 	c #9A9CCF",
"B 	c #B2B3DB",
"C 	c #9194C9",
"D 	c #646CB1",
"E 	c #404A9D",
"F 	c #3F499C",
"G 	c #B8B7DE",
"H 	c #9699CC",
"I 	c #434C9F",
"J 	c #3C479A",
"K 	c #B7B7DE",
"L 	c #9B9ED0",
"M 	c #4650A0",
"N 	c #424C9D",
"O 	c #9B9CCE",
"P 	c #AFAFDA",
"Q 	c #B5B5DD",
"R 	c #ABACD8",
"S 	c #4750A0",
"T 	c #404A9C",
"U 	c #8484C1",
"V 	c #B4B4DD",
"W 	c #7A7FBD",
"X 	c #4C55A3",
"Y 	c #7B7DBD",
"Z 	c #8284C1",
"` 	c #9B9BCE",
" .	c #A0A1D1",
"..	c #7177B8",
"+.	c #4750A1",
"@.	c #7C7DBD",
"#.	c #7979BC",
"$.	c #9697CC",
"%.	c #ACACD8",
"&.	c #B3B4DC",
"*.	c #B6B7DE",
"=.	c #A1A4D2",
"-.	c #4851A1",
";.	c #3B459A",
">.	c #414A9D",
",.	c #414C9D",
"'.	c #8082C0",
").	c #9898CD",
"!.	c #999CCE",
"~.	c #6D74B6",
"{.	c #3F489C",
"].	c #7E7FBF",
"^.	c #9394CA",
"/.	c #B4B5DD",
"(.	c #B5B5DC",
"_.	c #6971B4",
":.	c #444D9F",
"<.	c #7879BB",
"[.	c #9292C9",
"}.	c #AAAAD7",
"|.	c #9498CB",
"1.	c #464E9F",
"2.	c #3D469B",
"3.	c #9494CB",
"4.	c #9296CA",
"5.	c #6169AF",
"6.	c #3F499D",
"7.	c #7B7CBE",
"8.	c #7B7DBE",
"9.	c #7D7EBE",
"0.	c #404B9D",
"a.	c #7C7DBF",
"b.	c #434C9E",
"c.	c #7C7CBE",
"d.	c #7D7DBE",
"e.	c #7E7EBE",
"f.	c #434D9F",
"                                                                                                ",
"                                                    . +                                         ",
"                                                  @ # + $                                       ",
"                                              @ # + + + @ @ +                                   ",
"                                        . + @ + @ @ @ + + . @ # @ @                             ",
"                                      . + + + . . @ @ @ $ . @ + @ + .                           ",
"                                  @ + + @ @ @ + @ + # @ . @ . . @ # @ @ @                       ",
"                            + . + + @ @ @ . + @ @ + @ @ . @ . @ $ + . @ + + . .                 ",
"                          + @ + + . . . @ + + @ + + + . @ + + @ $ @ + + + + . @ %               ",
"                        & * # @ @ @ @ @ . + . @ @ + @ @ . + @ + . $ + + + . + = - ;             ",
"                        > , ' ) * ! @ . . . + + + @ + + @ + + @ + + @ . ~ { ] ^ / (             ",
"                        > _ : < [ @ } . . $ + $ + # @ @ + + # + @ @ | 1 2 3 4 5 ( (             ",
"                        , 6 > > > ' 7 @ @ + + + + @ @ @ . + . + + | 8 9 0 / ( a ( (             ",
"                        , > > : b c - + . @ d @ @ + @ $ + . e f g 0 h ( i j j ( j j             ",
"                        > : > k | * # $ @ $ @ . @ . @ $ * l m n 5 o i j p j q i ( j             ",
"                        r s t @ + u . + + . + . + $ + e v w x y ( ( j ( ( j i a j i             ",
"                      $ @ # + + . @ @ . @ + @ @ + @ z A 5 5 a p j a j ( i a ( q ( i             ",
"                    . u B # @ + @ + @ . . . @ @ + @ . | C D E F i ( p i j q j j a j             ",
"                . + @ . + @ + . @ + @ @ . . # . + + . @ G # H I J j j ( j q ( j j j             ",
"          B + + @ @ + + + + + @ + @ @ @ # @ . $ @ + + @ . + # K B L M j i a a N j a             ",
"        O P * @ # @ @ @ . . @ + @ # # + $ . @ . + @ @ + $ @ . Q K R S T a ( j j ( a             ",
"        _ U O V # $ @ $ @ + . $ . . $ + $ @ + @ + . @ + + # * t W X T j a j j j a j             ",
"        , Y > : Z ` * # $ . # @ $ @ . + . @ . + @ . . *  ...+.F i i q i i i ( i ( (             ",
"        @.> , > _ #.$.%.&.+ . + . + $ @ @ # @ @ + *.Q =.-.;.>.j i ( ,.j j a i p a j             ",
"        > 6 > > , > : '.).* % $ $ @ @ @ + $ @ # Q !.~.S {.( i a ( j j j i j ( a ( i             ",
"        > > , > > , @.6 > : ].^./.% @ @ B (.!._.:.F i j ( j ,.( ( ( ( i p ( i a j (             ",
"        , > , > Y > > > > > _ <.[.}.| *.@ |.1.2.>.a j a i ( ( i i ( ( ( ( ( ( ( j j             ",
"        , > > > @.> , > , > > > : ].3.4.5.6.F i ( j ( i N j p j p j i a ( a a j i i             ",
"        , , Y , 7.6 @.> 6 > > > 8.@.9.0.( ( i a i j j i ( j p j ( a ( ( a i a i                 ",
"        > @., 7.@.> > , @.> , @.@., , I a i ( a a ( a i i N i ( ( ( j a j a                     ",
"        > > > 7., 8.@., > > 6 @.6 Y a.b.( ( j j j ( i ( i i p a i a j j j                       ",
"        > > > , > , > > > > , > @.c.9.b.j ( ( j ( i ( i j ( j j i a                             ",
"        , , > > > , , , > @., 6 , @.d.b.j a j i i ( ( i p ( ( i N (                             ",
"        7.> > , , , Y > @., , , Y @.e.f.q i i q a j j a i i i ( i (                             ",
"        , , > @., , @., , > Y 6 > , 9.b.j i i i i a j j j j a j i q                             ",
"        6 6 > @., @.6 6 6 @., > , > 9.b.>.a j i j a j a j j j p i (                             ",
"        > > @.> > 6 > @.> 6 > @.6 > 9.b.q j ( q j ( i ( i a j ( ( j                             ",
"        , , @.> > > 6 > @.> @.7.6 , d.f.j i i a ( ( a ,.a j j ( j j                             ",
"        6 > @., , > , 6 > > > > > @.d.b.0.( a a a j j a a ( ,.( ( a                             ",
"          @.> > > > , , , , 6 6 > > e.i j ( a j ( ( N i i a ( j ( i                             ",
"                , 6 > 7., , > , 6 8.9.i 0.j ( j ( ( j a ( j i                                   ",
"                    > , , > > > > , d.b.0.j ( j j j a i j                                       ",
"                      > > , > @.> > 9.b.j j ( i ( i i (                                         ",
"                            6 > 6 @.d.b.j ( j ( (                                               ",
"                                > > , b.j i                                                     ",
"                                  , 9.b.q                                                       ",
"                                                                                                ",
"                                                                                                "};
