<?xml version="1.0" encoding="UTF-8"?>
<!-- Created with EazyDraw for Mac ( http://www.eazydraw.com/ ) -->

<svg
    version="1.1"
    xmlns:dc="http://purl.org/dc/elements/1.1/"
    xmlns:cc="http://creativecommons.org/ns#"
    xmlns:rdf="http://www.w3.org/1999/02/22-rdf-syntax-ns#"
    xmlns:svg="http://www.w3.org/2000/svg"
    xmlns:xlink="http://www.w3.org/1999/xlink"
    xmlns="http://www.w3.org/2000/svg"
    width="1296"
    height="1008"
    viewBox="0, 0, 1296, 1008"
    preserveAspectRatio="none"
    id="svg2">
   <defs
       id="defs_BCCC0042"/>
   <metadata
       id="metadata7">
      <rdf:RDF>
         <cc:Work
             rdf:about="">
            <dc:format>image/svg+xml</dc:format>
            <dc:type rdf:resource="http://purl.org/dc/dcmitype/StillImage"/>
            <dc:title></dc:title>
         </cc:Work>
      </rdf:RDF>
   </metadata>
   <g
       id="layer_Paper"
       style="fill:#000000;fill-opacity:1;stroke:#000000;stroke-opacity:1;fill-rule:nonzero;stroke-linecap:square;stroke-linejoin:miter;stroke-width:1;stroke-miterlimit:10">
      <rect
          style="fill:#3E79FF;fill-opacity:0;stroke:none"
          id="F2449320"
          x="0"
          y="0"
          width="72"
          height="72"/>
      <g
          id="82FDD700">
         <path
             style="fill:#007AFF;stroke:none"
             id="72DACEEF"
             d="M145.435887946,907.024739749 L100.727939047,907.024739749 L100.727939047,829.326037543 L115.016830816,829.326037543 C115.108133638,829.310820406 115.016830816,896.737955047 115.016830816,896.737955047 L145.846750649,896.737955047
L145.435887946,907.024739749"/>
         <path
             style="fill:#007AFF;stroke:none"
             id="D4DACEEF"
             d="M280.046683033,852.045223284 C280.122768719,840.267159142 268.238184617,827.317375441 251.514550907,827.317375441 C232.234438159,827.317375441 221.430270793,836.18896639 221.430270793,848.925710172 C221.430270793,874.931797534 268.070796109,865.131961219 268.268618892,883.438177191
C268.375138852,891.731516929 262.394803958,896.981429241 251.514550907,896.981429241 C238.214773052,896.981429241 231.85400973,886.694644538 231.85400973,875.236140276 L217.397729453,875.144837453 C217.275992356,892.705413706 229.023622223,907.861682291 251.955847884,907.861682291
C274.659816488,907.861682291 282.542293523,896.631435087 282.542293523,883.164268723 C282.542293523,855.788639019 235.110477077,861.951579558 235.110477077,849.458309971 C235.110477077,841.880175678 239.66040108,837.056343207 251.149339616,837.056343207
C262.01437553,837.056343207 264.890414448,845.623591413 265.696922716,852.045223284 L280.046683033,852.045223284"/>
         <path
             style="fill:#007AFF;stroke:none"
             id="56DACEEF"
             d="M846.53504712,909.033401851 C865.480382851,909.033401851 875.797601828,899.842251022 875.797601828,882.281674769 L875.797601828,829.112997623 L862.102178408,829.112997623 L862.102178408,876.636116893 C862.102178408,884.320771145 861.128281631,898.137931663 846.550264257,898.137931663
C831.88094406,898.137931663 830.907047283,884.320771145 830.907047283,876.636116893 L830.907047283,829.112997623 L817.272492411,829.112997623 L817.272492411,882.281674769 C817.242058137,900.709627839 828.74621381,909.033401851 846.53504712,909.033401851"/>
         <polygon
             style="fill:#007AFF;stroke:none"
             id="F7DACEEF"
             points="175.550602335,878.264350566 165.096429123,878.264350566 175.824510803,844.193180523 176.083202134,844.193180523 186.643895305,878.264350566 175.550602335,878.264350566 175.550602335,888.06418688 190.17427112,888.06418688 196.915462871,907.009522612 210.854360485,907.009522612 182.90047957,829.219517583 167.698559573,829.173866172 141.281609509,906.903002652 154.292261758,907.009522612 161.550836171,888.06418688 175.550602335,888.06418688"/>
         <path
             style="fill:#007AFF;stroke:none"
             id="89DACEEF"
             d="M431.609368888,857.751649709 C431.609368888,848.575716017 424.761657177,838.395451275 413.059678721,838.395451275 C396.549084931,838.395451275 389.610070398,848.195287589 389.610070398,868.09930296 C389.610070398,887.075072966 400.657711957,897.270554846 412.785770253,897.270554846
C426.161633794,897.270554846 430.468083603,887.075072966 430.711557797,876.11873423 L446.430860456,876.11873423 C446.522163279,892.52280806 435.931035834,909.276876045 413.059678721,909.276876045 C390.355710118,909.276876045 374.423367538,894.059738911 374.423367538,868.09930296
C374.423367538,842.13886701 390.355710118,826.997815561 413.059678721,826.997815561 C430.209392271,826.997815561 446.856940296,839.475868011 446.856940296,857.812518258 L431.609368888,857.751649709"/>
         <path
             style="fill:#007AFF;stroke:none"
             id="6BDACEEF"
             d="M573.57004121,885.233799373 C575.943914603,881.672989284 576.948245654,876.742636852 576.948245654,868.084085823 C576.948245654,847.753990612 567.346232123,837.801982927 552.189963537,837.801982927 C537.474991929,837.801982927 527.370812872,848.925710172 527.370812872,868.084085823
C527.370812872,887.105507241 538.068460277,897.803154646 552.448654869,897.803154646 C563.328907919,897.803154646 571.074430721,893.116276409 573.57004121,885.233799373 L588.467618465,885.233799373 C582.669889217,900.618325016 569.278808539,909.276876045 552.189963537,909.276876045
C529.516429208,909.276876045 512.45801848,892.248899592 512.45801848,867.840611629 C512.45801848,841.880175678 529.516429208,826.967381287 552.189963537,826.967381287 C574.878715004,826.967381287 591.648000126,841.514964387 591.648000126,867.536268886
C591.648000126,874.490500557 590.004549315,879.892584239 588.467618465,885.218582236 L573.57004121,885.218582236"/>
         <path
             style="fill:#007AFF;stroke:none"
             id="ECDACEEF"
             d="M46.9505764154,852.182177518 L46.9505764154,839.201959543 L60.1286171734,839.201959543 C69.2132480424,839.201959543 77.8413647973,840.982364588 77.8413647973,851.69522913 C77.8413647973,859.988568868 70.2936647789,864.340670088 62.2590163722,864.340670088
L46.9505764154,864.340670088 L46.9505764154,852.182177518 L32.4182104524,852.182177518 L32.4182104524,907.024739749 L46.9505764154,907.024739749 L46.9505764154,874.15572354 L67.919791386,874.15572354 C85.5716704614,874.15572354 91.552005355,860.353780159 91.552005355,851.649577718
C91.552005355,841.164970233 86.4086130038,829.569511737 70.4306190131,829.280386132 L32.4182104524,829.280386132 L32.4182104524,851.938703324"/>
         <polygon
             style="fill:#007AFF;stroke:none"
             id="6EDACEEF"
             points="283.866184454,829.310820406 338.373969668,829.310820406 338.373969668,839.080222446 318.287348651,839.080222446 318.287348651,907.009522612 304.485405271,907.009522612 304.485405271,839.080222446 283.866184454,839.080222446"/>
         <polygon
             style="fill:#007AFF;stroke:none"
             id="EFDACEEF"
             points="716.276353253,829.310820406 700.115753617,829.310820406 700.115753617,907.009522612 714.237256877,907.009522612 714.237256877,849.351790011 747.24322732,907.009522612 763.601649739,907.009522612 763.601649739,829.310820406 749.282323696,829.310820406 749.282323696,883.270788683"/>
         <rect
             style="fill:#007AFF;stroke:none"
             id="B1EACEEF"
             x="349.543348324"
             y="829.326037543"
             width="14.3041089059"
             height="77.6834850691"/>
         <rect
             style="fill:#007AFF;stroke:none"
             id="33EACEEF"
             x="784.799121767"
             y="829.326037543"
             width="14.3954117287"
             height="77.6834850691"/>
         <polygon
             style="fill:#007AFF;stroke:none"
             id="05EACEEF"
             points="647.570979093,907.146476846 665.496766637,849.549612794 665.816326517,849.549612794 665.816326517,907.146476846 680.166086834,907.146476846 680.166086834,829.402123229 661.038145457,829.402123229 641.864552668,886.283781835 642.016724039,886.283781835 622.782262702,829.402123229 603.699972736,829.402123229 603.699972736,907.146476846 617.943213093,907.146476846 617.943213093,849.549612794 636.873331688,907.146476846"/>
         <polygon
             style="fill:#007AFF;stroke:none"
             id="07EACEEF"
             points="935.981379193,907.146476846 953.846298188,849.549612794 954.272378028,849.549612794 954.272378028,907.146476846 968.500401248,907.146476846 968.500401248,829.402123229 949.418111282,829.402123229 930.259735631,886.283781835 930.366255591,886.283781835 911.207879939,829.402123229 892.110372836,829.402123229 892.110372836,907.146476846 906.414481742,907.146476846 906.414481742,849.549612794 925.253297514,907.146476846"/>
         <path
             style="fill:#007AFF;stroke:none"
             id="A8EACEEF"
             d="M580.280798687,394.511561076 L475.739066576,544.96339592 C329.091516016,730.779857463 7.964271078165,640.283542927 0.888302310872,369.783713233 L145.192413752,369.783713233 C145.192413752,440.726006552 202.637106433,498.18591637 273.594616889,498.18591637
C344.476041659,498.18591637 401.981602888,440.741223689 401.981602888,369.783713233 C401.981602888,298.871854189 344.476041659,241.381510096 273.594616889,241.381510096 C202.637106433,241.381510096 145.192413752,303.330475369 145.192413752,369.783713233
L0.888302310872,369.783713233 C10.3837958825,63.3562227657 430.90938058,-5.257848571476 508.653734197,278.100462001 C501.592982567,305.171748962 587.874150116,97.1839186146 757.316972103,101.886013989 C1046.53388047,95.9969819182 1127.97599841,582.945370206 766.629860029,611.325330961
L667.961942852,611.325330961 L667.961942852,770.61832248 L526.838213072,770.61832248 L526.838213072,475.603684863 L752.523573906,475.603684863 C806.027028069,475.603684863 833.539612007,435.476094241 834.102646081,434.852191618
C913.094804944,353.531810774 807.487873234,176.115208929 673.211855164,274.554869049 C640.555878874,302.173972947 590.293674921,379.522680999 580.280798687,394.511561076 L570.983127898,408.572195788"/>
      </g>
      <rect
          style="fill:none;stroke:none"
          id="93CA8420"
          x="1224"
          y="936"
          width="72"
          height="72"/>
      <rect
          style="fill:#3E79FF;fill-opacity:0;stroke:none"
          id="28152950"
          x="936"
          y="936"
          width="72"
          height="72"/>
   </g>
</svg>
